<svg xmlns="http://www.w3.org/2000/svg" fill="none" viewBox="0 0 72 72" height="72" width="72">
<path fill="#FF872B" d="M43.6025 72H0V28.4075C0 20.8805 2.99874 13.6553 8.32201 8.33208C13.6453 2.99874 20.8704 0.0100629 28.3975 0H72V43.6025C72 51.1296 69.0013 58.3547 63.678 63.678C58.3547 69.0013 51.1296 72 43.6025 72Z" clip-rule="evenodd" fill-rule="evenodd"></path>
<path fill="black" d="M45.0818 44.81C50.8277 41.5295 55.4566 35.9748 55.4566 25.4591V11.4918H38.3497C32.9258 11.4918 27.7233 13.6452 23.8792 17.4792C20.0352 21.3131 17.8717 26.5056 17.8616 31.9295V60.4276H23.4465V31.9295C23.4465 27.9748 25.0264 24.1811 27.8239 21.3735C30.6214 18.576 34.4151 17.0062 38.3799 17.0062H48.5836C49.3082 17.0062 49.9019 17.5999 49.9019 18.3245V25.3786C49.9019 34.6465 43.1094 41.771 35.3811 41.771H35.2302C34.5057 41.771 33.9119 41.1773 33.9119 40.4528V35.7735C33.9119 24.9157 39.0138 24.2515 39.0138 24.2515C36.3774 24.2515 33.8516 25.298 31.9899 27.1597C30.1283 29.0213 29.0818 31.5471 29.0818 34.1836V47.4465H34.9685C36.3774 47.4465 37.7862 47.2855 39.1648 46.9936L47.3761 60.4276H53.7761L44.8503 45.7157C44.6591 45.4037 44.7597 44.9911 45.0818 44.81Z" clip-rule="evenodd" fill-rule="evenodd"></path>
</svg>
